<?xml version="1.0" encoding="utf-8"?>
<!-- Generator: Adobe Illustrator 17.0.0, SVG Export Plug-In . SVG Version: 6.00 Build 0)  -->
<!DOCTYPE svg PUBLIC "-//W3C//DTD SVG 1.1//EN" "http://www.w3.org/Graphics/SVG/1.1/DTD/svg11.dtd">
<svg version="1.1" id="Capa_1" xmlns="http://www.w3.org/2000/svg" xmlns:xlink="http://www.w3.org/1999/xlink" x="0px" y="0px"
	 width="64px" height="64px" viewBox="0 0 64 64" enable-background="new 0 0 64 64" xml:space="preserve">
<g>
	<path d="M32,6.667C18.009,6.667,6.667,18.009,6.667,32c0,6.097,2.155,11.69,5.743,16.061c0.554-4.432,4.981-8.181,11.189-9.956
		C25.867,40.218,28.797,41.5,32,41.5c3.128,0,6-1.218,8.245-3.242c6.262,1.931,10.594,5.898,10.736,10.511
		c3.95-4.468,6.352-10.337,6.352-16.769C57.333,18.009,45.991,6.667,32,6.667z M32,38.5c-1.617,0-3.141-0.444-4.494-1.214
		C24.245,35.43,22,31.634,22,27.25C22,21.047,26.486,16,32,16s10,5.047,10,11.25c0,4.451-2.315,8.295-5.657,10.118
		C35.027,38.086,33.557,38.5,32,38.5z"/>
</g>
</svg>
